<svg xmlns="http://www.w3.org/2000/svg" viewBox="0 0 44.72 44.57"><defs><style>.cls-1{fill:#fff;}</style></defs><title>Asset 4</title><g id="Layer_2" data-name="Layer 2"><g id="Layer_1-2" data-name="Layer 1"><path class="cls-1" d="M0,36.29l7.37-4.46c1.43,2.52,2.72,4.66,5.83,4.66s4.85-1.17,4.85-5.7V0h9.06V30.92c0,9.38-5.5,13.65-13.53,13.65C6.34,44.57,2.14,40.82,0,36.29Z"/><path class="cls-1" d="M31.72,15.8l6-6.4c1.73-1.83,2.55-2.61,2.55-3.92A1.73,1.73,0,0,0,38.4,3.75c-1.4,0-2.19,1.09-2.64,2.43l-3.83-1A6.34,6.34,0,0,1,38.37,0c4.25,0,6.19,2.52,6.19,5.17,0,1.94-1.33,3.76-3.18,5.74l-.46.48c-.58.61-1.15,1.29-1.15,1.29s.88,0,1.42,0h3.53v3.49h-13Z"/></g></g></svg>