<svg id="Layer_1" data-name="Layer 1" xmlns="http://www.w3.org/2000/svg" viewBox="0 0 66.61 80.86"><title>swipeLeftRight</title><path d="M33.47,17.23A4.77,4.77,0,0,1,38.22,22V38.62a4.89,4.89,0,0,1,2.38-4.75,4.74,4.74,0,0,1,4.75,0,4.85,4.85,0,0,1,2.38,4.75v4.75a4.93,4.93,0,0,1,1.19-3.56c1.63-1.69,5.45-1.8,7.13,0,1,1,1.05,2.68,1.19,5.94,0,1,0,1.82,0,2.38a4.89,4.89,0,0,1,2.37-4.76,4.81,4.81,0,0,1,4.76,0,4.89,4.89,0,0,1,2.37,4.76V75a4.78,4.78,0,0,1,0,1.66A6,6,0,0,1,62,81.4a14.89,14.89,0,0,1-2.41,0H35.85A10.86,10.86,0,0,1,28.72,79c-2.38-2-2.57-4.21-4.76-9.51A65.31,65.31,0,0,0,19.21,60c-4.22-6.8-8.07-9-7.13-11.88a4.28,4.28,0,0,1,2.38-2.38c3.53-1.43,9.26,2.42,14.26,9.51V22A4.77,4.77,0,0,1,33.47,17.23Z" transform="translate(-0.2 -0.59)"/><path d="M26.34,7.72h0a9.51,9.51,0,0,1-9.51,9.51H12.08v7.13L.2,12.48,12.08.59V7.72Z" transform="translate(-0.2 -0.59)"/><path d="M50.11,17.23h4.75v7.13L66.74,12.48,54.86.59V7.72H40.6A9.51,9.51,0,0,0,50.11,17.23Z" transform="translate(-0.2 -0.59)"/></svg>