<svg xmlns="http://www.w3.org/2000/svg" xmlns:xlink="http://www.w3.org/1999/xlink" viewBox="0 0 1196.8 1568.52"><defs><style>.cls-1{fill:url(#linear-gradient);}</style><linearGradient id="linear-gradient" y1="784.26" x2="1196.8" y2="784.26" gradientUnits="userSpaceOnUse"><stop offset="0" stop-color="#3100ff"/><stop offset="1" stop-color="#f800ff"/></linearGradient></defs><title>Asset 6</title><g id="Layer_2" data-name="Layer 2"><g id="Layer_1-2" data-name="Layer 1"><path class="cls-1" d="M562.71,1568.52c-15,0-25.93-5.47-32.43-16.27-5.06-8.38-6.77-18.58-8.94-31.49-5.17-30.68-13-77-71.79-139.81-30.55-31.45-65.3-55.57-102.09-81.11-48.34-33.55-103.12-71.57-161-134.61-47.38-50.13-84.78-105.41-108.16-159.86-25.77-60-34.35-117-25.51-169.5A223.25,223.25,0,0,1,97.53,734.64c22.79-29.21,53.65-54.75,91.82-76-12.06-53.84-24.8-108.18-37.91-161.7-14.11-57.62-29-115.84-44.39-173.17a154.61,154.61,0,0,1-51.51-29.57c-28.75-25.06-39.56-53.77-44.18-66-14.08-37.37-12.53-71.86-8.75-94.22l.06-.35.07-.35c.36-1.65,9.15-40.74,40.47-75.8C76.29,20.4,136.14,0,211.72,0c38.65,0,79.47,5.34,121.34,15.88A5044.26,5044.26,0,0,1,823.05,165c106.88,38.6,213.83,81.39,317.87,127.2l6.56,2.89,1.87,6.93a21.2,21.2,0,0,1-3.43,18.85c-7.58,9.9-21.86,11.27-36.16,11.27-24.25,0-62.41-5-115.22-11.86-101-13.16-253.73-33.07-435.54-33.07-65.59,0-130.78,2.63-194.08,7.82,7.32,29.06,14.86,59.38,22.52,90.54,33.58-19.84,64.73-29.87,92.83-29.87,32,0,60.31,12.6,84.45,37.51,16.43-18.49,33.09-33.16,49.69-43.75,21.45-13.68,42.87-20.62,63.67-20.62,26.86,0,64.7,11.87,98.47,65.56,35.88-31,68.68-46.15,99.87-46.15,26,0,49.88,10.79,71.12,32.07,17.39,17.42,32.89,41.51,47.39,73.66,25.59,56.7,42.51,126.88,56.11,183.26,2.6,10.81,5.07,21,7.45,30.54,13.89,53.38,26.75,99.53,38.1,140.25,45.44,163,70.47,252.87,60.45,441.75l0,.62-.08.61c-11.34,83.2,8.4,145.79,24.25,196.08,7.78,24.67,14.49,46,15.49,64.6,1.24,23.25-6.66,40.69-24.16,53.3l-3.92,2.83H573A86.19,86.19,0,0,1,562.71,1568.52ZM202.33,727.31c-51.39,33.71-80.27,77.56-85.92,130.58-4.94,46.32,8.46,99.88,38.75,154.89C184.49,1066,229,1119.92,284,1168.57l.23.2c31.15,28.72,66,53.08,99.72,76.64,44,30.76,89.53,62.57,126.12,103.88,38.74,43.75,63.45,94,75.3,153.3l534.79-1.12c-35.51-125.25-32.15-196.07-28.6-270.82,4-84.35,8.15-171.57-43.84-350.89l-.1-.38c-13.1-50.09-25.95-97-38.39-142.46-12-43.93-23.39-85.43-34.63-128.43-12.35-46-26.37-98.22-44.14-136.7-17.84-38.63-36.37-57.42-56.64-57.42-18.27,0-40.57,14.24-66.35,42.35,1.89,7.64,6.42,21.72,10.22,33.53,21.53,67,35.53,116.09,19.48,138.12a26.31,26.31,0,0,1-21.86,10.86c-1.1,0-2.23-.06-3.38-.17h-.57c-19.6,0-27.72-21.28-30.39-28.27-4.83-12.63-8.8-29.55-13.41-49.13-8.52-36.26-19.14-81.38-40.1-120.33l-.12-.25c-15.71-30.53-32.82-46-50.87-46-20.12,0-44.7,18.39-71.3,53.26,7,28.27,13.06,52.32,18.9,75.63,5.79,23.09,11.26,44.92,17.6,70.43,8.33,22.8,8,43.27-1.07,56.27-5.38,7.75-13.54,12.2-22.38,12.2-15.32,0-33.8-13.39-39.88-50.91q-1.46-6.13-2.87-12.21c-22.46-95.62-41.85-178.2-94.64-178.2-20,0-45.84,10.64-76.81,31.66l9.37,38.69C431.74,567.63,447.6,633,463.77,703.33l.14.62.09.63a30.16,30.16,0,0,1-7.45,24.28,35.74,35.74,0,0,1-26.64,12.22c-14.38,0-26.11-8.83-31.48-23.66-5.44-12.9-10.33-38.87-16.5-71.63-6.38-33.86-13.62-72.24-22.67-102l-.08-.27-.07-.27c-10.42-39.52-20-78.51-29.27-116.21-19-77.39-37-150.49-60.71-223.62-8.06-24.05-36.44-43.6-63.29-43.6-17.41,0-33,8.15-45,23.59-16.45,27-13.89,41,54.95,319C236,584,261.15,685.58,292.91,816.61l.62,2.6-.25,2.21c.25,5.11,6,24,10.54,39.23C322.16,921.48,334,966.1,318.89,986.41a25.71,25.71,0,0,1-21.18,10.42c-5.46,0-11.27-1.41-17.78-4.32l-.79-.35-.74-.44c-12.73-7.56-16-22-20.5-41.88-1.85-8.16-3.94-17.39-7-28.35l-.11-.4ZM489.58,218.18c60.59,0,122,1.89,182.43,5.63,66.19,4.09,132.63,10.46,198.73,19-72.52-25.62-143.38-49.41-211.87-71.12-55-17.44-97.4-29.64-181.85-53.94C450.13,110.05,394.25,94,319.29,78.1c-51.8-11-83.77-15.64-106.92-15.64a171.69,171.69,0,0,0-24.88,1.82C153.43,69.08,111,75.06,86.71,110c-26.68,38.3-13.11,84.57-13,85a99.13,99.13,0,0,0,11.43,24.55,143.73,143.73,0,0,1,1.07-22.31A128.47,128.47,0,0,1,108.82,139c22.47-31.42,58.5-50.18,96.36-50.18,31,0,60.33,12.14,84.86,35.1,24.81,23.23,43.39,56.1,55.31,97.82C393.26,219.36,441.72,218.18,489.58,218.18Z"/></g></g></svg>