<?xml version="1.0" encoding="utf-8"?>
<!-- Generator: Adobe Illustrator 24.0.2, SVG Export Plug-In . SVG Version: 6.00 Build 0)  -->
<svg version="1.1" id="Layer_1" xmlns="http://www.w3.org/2000/svg" xmlns:xlink="http://www.w3.org/1999/xlink" x="0px" y="0px"
	 viewBox="0 0 157 130" style="enable-background:new 0 0 157 130;" xml:space="preserve">
<path d="M32.6,64.9c0-5,4.2-9.2,9.2-9.2c10.7,0,21.5,0,32.2,0c-3.8,0.4-7.4-1.4-9.2-4.6c-1.6-2.8-1.6-6.4,0-9.2
	c1.8-3.2,5.5-5,9.2-4.6c3.1,0,6.1,0,9.2,0c-1.2,0-4.5,0-6.9-2.3c-3.3-3.2-3.5-10.6,0-13.8c2-1.9,5.2-2,11.5-2.3c1.9-0.1,3.5,0,4.6,0
	c-3.8,0.4-7.4-1.4-9.2-4.6c-1.6-2.8-1.6-6.4,0-9.2c1.8-3.2,5.5-5,9.2-4.6c17.3,0,34.7,0,52,0c0.7-0.1,1.9-0.2,3.2,0
	c4.6,0.8,8.7,5,9.2,9.2c0.2,1.7,0,4.7,0,4.7c0,15.3,0,30.6,0,46c0,4.3-1,9.4-4.6,13.8c-3.8,4.6-8.2,5-18.4,9.2
	c-3.2,1.3-10.9,4.5-18.4,9.2c-13.2,8.2-17.5,15.6-23,13.8c-3.1-1-4.5-4.3-4.6-4.6c-2.8-6.8,4.7-17.9,18.4-27.6c-21.5,0-43,0-64.4,0
	C36.8,74.1,32.6,70,32.6,64.9z"/>
<path d="M14.2,78.7L14.2,78.7c10.2,0,18.4,8.2,18.4,18.4v9.2h13.8l-23,23l-23-23h13.8V78.7z"/>
<path d="M32.6,32.7v-9.2h13.8l-23-23l-23,23h13.8v27.6h0C24.4,51.1,32.6,42.9,32.6,32.7z"/>
</svg>
